<svg width="32" height="32" viewBox="0 0 32 32" fill="none" xmlns="http://www.w3.org/2000/svg">
  <defs>
    <linearGradient id="faviconPremium" x1="0%" y1="0%" x2="100%" y2="100%">
      <stop offset="0%" style="stop-color:#0ea5e9;stop-opacity:1" />
      <stop offset="30%" style="stop-color:#06b6d4;stop-opacity:1" />
      <stop offset="70%" style="stop-color:#0891b2;stop-opacity:1" />
      <stop offset="100%" style="stop-color:#164e63;stop-opacity:1" />
    </linearGradient>
    
    <filter id="faviconGlow">
      <feGaussianBlur stdDeviation="1" result="coloredBlur"/>
      <feMerge> 
        <feMergeNode in="coloredBlur"/>
        <feMergeNode in="SourceGraphic"/>
      </feMerge>
    </filter>
  </defs>
  
  <!-- Background -->
  <rect width="32" height="32" rx="8" fill="url(#faviconPremium)" filter="url(#faviconGlow)"/>
  
  <!-- Shield -->
  <path d="M16 3C16 3 10 2 6 2C2 2 0 3 0 3V15C0 22 4 27 8 29C12 31 16 29 20 29C24 27 28 22 28 15V3S26 2 22 2C18 2 16 3 16 3Z" 
        fill="rgba(255, 255, 255, 0.95)" 
        stroke="rgba(6, 182, 212, 0.3)" 
        stroke-width="0.5"/>
  
  <!-- Lock -->
  <rect x="10" y="17" width="8" height="6" rx="1" 
        fill="#06b6d4" 
        stroke="rgba(255, 255, 255, 0.5)" 
        stroke-width="0.3"/>
  
  <path d="M12 17V14C12 12.3 13.3 11 15 11H17C18.7 11 20 12.3 20 14V17" 
        stroke="#06b6d4" 
        stroke-width="1.2" 
        fill="none" 
        stroke-linecap="round"/>
  
  <!-- Keyhole -->
  <circle cx="14" cy="20" r="1" fill="white"/>
  
  <!-- Accent dots -->
  <circle cx="6" cy="9" r="0.5" fill="rgba(6, 182, 212, 0.6)"/>
  <circle cx="26" cy="9" r="0.5" fill="rgba(6, 182, 212, 0.6)"/>
  <circle cx="4" cy="18" r="0.5" fill="rgba(6, 182, 212, 0.5)"/>
  <circle cx="28" cy="18" r="0.5" fill="rgba(6, 182, 212, 0.5)"/>
</svg>