<svg width="64" height="64" viewBox="0 0 64 64" fill="none" xmlns="http://www.w3.org/2000/svg">
  <defs>
    <linearGradient id="iconGrad" x1="0%" y1="0%" x2="100%" y2="100%">
      <stop offset="0%" style="stop-color:#06b6d4"/>
      <stop offset="100%" style="stop-color:#0891b2"/>
    </linearGradient>
  </defs>
  
  <!-- Shield -->
  <path d="M32 4C32 4 20 2 12 2C4 2 0 4 0 4V28C0 42 8 52 16 56C24 60 32 56 40 56C48 52 56 42 56 28V4S52 2 44 2C36 2 32 4 32 4Z" 
        fill="url(#iconGrad)" 
        stroke="rgba(255, 255, 255, 0.3)" 
        stroke-width="2"/>
  
  <!-- Lock -->
  <rect x="20" y="32" width="16" height="12" rx="2" fill="white" opacity="0.95"/>
  <path d="M24 32V26C24 22.7 26.7 20 30 20H34C37.3 20 40 22.7 40 26V32" 
        stroke="white" stroke-width="3" fill="none" stroke-linecap="round"/>
  <circle cx="28" cy="38" r="2" fill="#06b6d4"/>
</svg>