<svg width="200" height="60" viewBox="0 0 200 60" fill="none" xmlns="http://www.w3.org/2000/svg">
  <defs>
    <linearGradient id="shieldGrad" x1="0%" y1="0%" x2="100%" y2="100%">
      <stop offset="0%" style="stop-color:#06b6d4"/>
      <stop offset="100%" style="stop-color:#0891b2"/>
    </linearGradient>
    <linearGradient id="textGrad" x1="0%" y1="0%" x2="100%" y2="0%">
      <stop offset="0%" style="stop-color:#0f172a"/>
      <stop offset="100%" style="stop-color:#334155"/>
    </linearGradient>
  </defs>
  
  <!-- Shield -->
  <path d="M30 6C30 6 20 4 12 4C4 4 0 6 0 6V24C0 34 6 42 12 46C18 50 30 46 36 46C42 42 48 34 48 24V6S44 4 36 4C28 4 30 6 30 6Z" 
        fill="url(#shieldGrad)" 
        stroke="rgba(255, 255, 255, 0.2)" 
        stroke-width="1"/>
  
  <!-- Lock -->
  <rect x="16" y="28" width="12" height="8" rx="2" fill="white" opacity="0.95"/>
  <path d="M18 28V24C18 21.8 19.8 20 22 20H26C28.2 20 30 21.8 30 24V28" 
        stroke="white" stroke-width="2" fill="none" stroke-linecap="round"/>
  <circle cx="22" cy="32" r="1.5" fill="#06b6d4"/>
  
  <!-- Brand Text -->
  <text x="60" y="38" 
        font-family="system-ui, -apple-system, sans-serif" 
        font-size="32" 
        font-weight="800" 
        fill="url(#textGrad)" 
        letter-spacing="-1px">Lok</text>
  
  <!-- Tagline -->
  <text x="60" y="50" 
        font-family="system-ui, -apple-system, sans-serif" 
        font-size="10" 
        font-weight="600" 
        fill="#64748b" 
        letter-spacing="1px">PASSWORD MANAGER</text>
</svg>