<svg width="32" height="32" viewBox="0 0 32 32" fill="none" xmlns="http://www.w3.org/2000/svg">
  <defs>
    <linearGradient id="faviconGradient" x1="0%" y1="0%" x2="100%" y2="100%">
      <stop offset="0%" style="stop-color:#06b6d4;stop-opacity:1" />
      <stop offset="50%" style="stop-color:#0891b2;stop-opacity:1" />
      <stop offset="100%" style="stop-color:#0e7490;stop-opacity:1" />
    </linearGradient>
  </defs>
  
  <!-- Shield -->
  <path d="M16 2C16 2 10 1 6 1C2 1 0 2 0 2V14C0 21 4 26 8 28C12 30 16 28 20 28C24 26 28 21 28 14V2S26 1 22 1C18 1 16 2 16 2Z" 
        fill="url(#faviconGradient)"/>
  
  <!-- Lock -->
  <rect x="10" y="16" width="8" height="6" rx="1" fill="white" opacity="0.95"/>
  <path d="M12 16V13C12 11.3 13.3 10 15 10H17C18.7 10 20 11.3 20 13V16" 
        stroke="white" 
        stroke-width="1.2" 
        fill="none" 
        opacity="0.95"/>
  <circle cx="14" cy="19" r="1" fill="#06b6d4"/>
</svg>