<svg width="32" height="32" viewBox="0 0 32 32" fill="none" xmlns="http://www.w3.org/2000/svg">
  <defs>
    <linearGradient id="bg" x1="0%" y1="0%" x2="100%" y2="100%">
      <stop offset="0%" style="stop-color:#1e40af"/>
      <stop offset="100%" style="stop-color:#3730a3"/>
    </linearGradient>
    <filter id="glow">
      <feGaussianBlur stdDeviation="1" result="coloredBlur"/>
      <feMerge> 
        <feMergeNode in="coloredBlur"/>
        <feMergeNode in="SourceGraphic"/> 
      </feMerge>
    </filter>
  </defs>
  
  <!-- Background -->
  <rect width="32" height="32" rx="8" fill="url(#bg)"/>
  
  <!-- Shield outline -->
  <path d="M16 3l10 4v8c0 7-4.5 13.5-10 15-5.5-1.5-10-8-10-15V7l10-4z" 
        stroke="white" stroke-width="2" fill="none" opacity="0.9"/>
  
  <!-- Central lock icon -->
  <rect x="12" y="13" width="8" height="6" rx="1" fill="white" opacity="0.95"/>
  <path d="M13.5 13v-2c0-1.4 1.1-2.5 2.5-2.5s2.5 1.1 2.5 2.5v2" 
        stroke="white" stroke-width="1.5" fill="none" opacity="0.95"/>
  
  <!-- Key dots pattern -->
  <circle cx="12" cy="10" r="0.8" fill="white" opacity="0.7" filter="url(#glow)"/>
  <circle cx="20" cy="10" r="0.8" fill="white" opacity="0.7" filter="url(#glow)"/>
  <circle cx="10" cy="16" r="0.8" fill="white" opacity="0.7" filter="url(#glow)"/>
  <circle cx="22" cy="16" r="0.8" fill="white" opacity="0.7" filter="url(#glow)"/>
  <circle cx="12" cy="22" r="0.8" fill="white" opacity="0.7" filter="url(#glow)"/>
  <circle cx="20" cy="22" r="0.8" fill="white" opacity="0.7" filter="url(#glow)"/>
</svg>