<svg width="32" height="32" viewBox="0 0 32 32" fill="none" xmlns="http://www.w3.org/2000/svg">
  <defs>
    <linearGradient id="bg" x1="0%" y1="0%" x2="100%" y2="100%">
      <stop offset="0%" style="stop-color:#1e40af"/>
      <stop offset="100%" style="stop-color:#3730a3"/>
    </linearGradient>
    <filter id="glow">
      <feGaussianBlur stdDeviation="1" result="coloredBlur"/>
      <feMerge> 
        <feMergeNode in="coloredBlur"/>
        <feMergeNode in="SourceGraphic"/> 
      </feMerge>
    </filter>
  </defs>
  
  <!-- Background -->
  <rect width="32" height="32" rx="8" fill="url(#bg)"/>
  
  <!-- Shield outline -->
  <path d="M16 4l8 3v6c0 5.5-3.5 10.5-8 12-4.5-1.5-8-6.5-8-12V7l8-3z" 
        stroke="white" stroke-width="1.8" fill="none" opacity="0.9"/>
  
  <!-- Central lock icon -->
  <rect x="13" y="14" width="6" height="5" rx="1" fill="white" opacity="0.95"/>
  <path d="M14.5 14v-1.5c0-0.8 0.7-1.5 1.5-1.5s1.5 0.7 1.5 1.5V14" 
        stroke="white" stroke-width="1.2" fill="none" opacity="0.95"/>
  
  <!-- Key dots pattern -->
  <circle cx="12" cy="10" r="0.8" fill="white" opacity="0.7" filter="url(#glow)"/>
  <circle cx="20" cy="10" r="0.8" fill="white" opacity="0.7" filter="url(#glow)"/>
  <circle cx="10" cy="16" r="0.8" fill="white" opacity="0.7" filter="url(#glow)"/>
  <circle cx="22" cy="16" r="0.8" fill="white" opacity="0.7" filter="url(#glow)"/>
  <circle cx="12" cy="22" r="0.8" fill="white" opacity="0.7" filter="url(#glow)"/>
  <circle cx="20" cy="22" r="0.8" fill="white" opacity="0.7" filter="url(#glow)"/>
</svg>